<svg xmlns="http://www.w3.org/2000/svg" width="1200" height="360" viewBox="0 0 1200 360" role="img" aria-labelledby="title desc">
  <title id="title">Mykola Dotsenko — Software Engineer</title>
  <desc id="desc">Nordic editorial profile banner with a technical data path flowing into agricultural field contours.</desc>
  <defs>
    <linearGradient id="bg" x1="0" y1="0" x2="1" y2="1">
      <stop offset="0" stop-color="#F9FAF6"/>
      <stop offset="1" stop-color="#EEF2EA"/>
    </linearGradient>
    <radialGradient id="fieldGlow" cx="82%" cy="34%" r="58%">
      <stop offset="0" stop-color="#C9D9BE" stop-opacity=".72"/>
      <stop offset=".52" stop-color="#DDE6D7" stop-opacity=".28"/>
      <stop offset="1" stop-color="#F6F7F2" stop-opacity="0"/>
    </radialGradient>
    <linearGradient id="signal" x1="0" y1="0" x2="1" y2="0">
      <stop offset="0" stop-color="#94AA87" stop-opacity=".2"/>
      <stop offset=".35" stop-color="#7B956E"/>
      <stop offset="1" stop-color="#5E7B52"/>
    </linearGradient>
    <filter id="softShadow" x="-20%" y="-20%" width="140%" height="140%">
      <feDropShadow dx="0" dy="10" stdDeviation="18" flood-color="#5B6B58" flood-opacity=".12"/>
    </filter>
    <filter id="nodeGlow" x="-300%" y="-300%" width="600%" height="600%">
      <feGaussianBlur stdDeviation="4" result="blur"/>
      <feMerge><feMergeNode in="blur"/><feMergeNode in="SourceGraphic"/></feMerge>
    </filter>
    <clipPath id="cardClip"><rect x="18" y="18" width="1164" height="324" rx="28"/></clipPath>
  </defs>

  <rect x="18" y="18" width="1164" height="324" rx="28" fill="url(#bg)" filter="url(#softShadow)"/>
  <rect x="18.5" y="18.5" width="1163" height="323" rx="27.5" fill="none" stroke="#D9E1D4"/>

  <g clip-path="url(#cardClip)">
    <rect x="620" y="-20" width="620" height="430" fill="url(#fieldGlow)"/>

    <g stroke="#DDE4D9" stroke-width="1" opacity=".82">
      <path d="M52 72H1148M52 132H1148M52 192H1148M52 252H1148M52 312H1148"/>
      <path d="M172 40V332M392 40V332M612 40V332M832 40V332M1052 40V332"/>
    </g>

    <g fill="none" stroke="#AABD9F" stroke-width="1.35" opacity=".82">
      <path d="M741 330C768 298 803 284 842 266C894 242 923 207 950 170C982 126 1020 102 1070 88C1102 79 1133 77 1164 79"/>
      <path d="M782 345C812 313 850 296 891 276C941 252 974 221 1004 184C1038 143 1078 121 1127 112C1148 108 1167 107 1185 108"/>
      <path d="M701 307C728 275 756 252 795 230C838 206 864 176 889 139C918 96 949 71 995 52C1032 37 1071 32 1116 35"/>
      <path d="M668 280C699 245 726 218 758 189C790 160 812 127 831 91C851 55 874 31 905 12"/>
      <path d="M845 340C882 316 921 295 958 267C996 239 1027 208 1055 177C1090 138 1125 119 1172 113"/>
    </g>

    <g opacity=".9">
      <path d="M694 95H1088" stroke="#A1B697" stroke-width="2"/>
      <circle cx="724" cy="95" r="4.5" fill="#7B956E"/>
      <circle cx="820" cy="95" r="4.5" fill="#7B956E"/>
      <circle cx="929" cy="95" r="4.5" fill="#7B956E"/>
      <circle cx="1032" cy="95" r="4.5" fill="#7B956E"/>
      <text x="702" y="78" fill="#7A8975" font-family="ui-monospace,SFMono-Regular,Consolas,monospace" font-size="10" letter-spacing="1.4">SOURCE</text>
      <text x="797" y="78" fill="#7A8975" font-family="ui-monospace,SFMono-Regular,Consolas,monospace" font-size="10" letter-spacing="1.4">STATE</text>
      <text x="905" y="78" fill="#7A8975" font-family="ui-monospace,SFMono-Regular,Consolas,monospace" font-size="10" letter-spacing="1.4">RULES</text>
      <text x="1010" y="78" fill="#7A8975" font-family="ui-monospace,SFMono-Regular,Consolas,monospace" font-size="10" letter-spacing="1.4">ACTION</text>
    </g>

    <path d="M694 95C770 118 796 155 837 180C875 203 916 204 956 184C1001 162 1016 123 1054 108C1082 97 1109 101 1134 119" fill="none" stroke="url(#signal)" stroke-width="3.1" stroke-linecap="round"/>
    <circle cx="837" cy="180" r="5.5" fill="#6F8D61" filter="url(#nodeGlow)">
      <animate attributeName="r" values="4.8;7.2;4.8" dur="3.2s" repeatCount="indefinite"/>
      <animate attributeName="opacity" values=".75;1;.75" dur="3.2s" repeatCount="indefinite"/>
    </circle>
    <circle cx="1054" cy="108" r="4.8" fill="#6F8D61"/>

    <rect x="713" y="244" width="222" height="55" rx="14" fill="#FBFCF9" fill-opacity=".88" stroke="#D6DFD1"/>
    <text x="731" y="266" fill="#788572" font-family="ui-monospace,SFMono-Regular,Consolas,monospace" font-size="10.5" letter-spacing="1.5">ENGINEERING SIGNAL</text>
    <text x="731" y="286" fill="#2E3A32" font-family="ui-sans-serif,system-ui,-apple-system,Segoe UI,sans-serif" font-size="14.5" font-weight="650">evidence before confidence</text>

    <text x="72" y="86" fill="#71806C" font-family="ui-sans-serif,system-ui,-apple-system,Segoe UI,sans-serif" font-size="15.5" font-weight="750" letter-spacing="3.4">SOFTWARE ENGINEER · FINLAND</text>

    <text x="72" y="151" fill="#17212B" font-family="ui-sans-serif,system-ui,-apple-system,Segoe UI,sans-serif" font-size="40" font-weight="760">
      <tspan x="72" dy="0">I build trustworthy software</tspan>
      <tspan x="72" dy="46">for messy reality.</tspan>
    </text>

    <text x="72" y="260" fill="#53606B" font-family="ui-sans-serif,system-ui,-apple-system,Segoe UI,sans-serif" font-size="19.5">Python / Django · Data · Integrations · AgriTech</text>
    <text x="72" y="300" fill="#6A756C" font-family="ui-sans-serif,system-ui,-apple-system,Segoe UI,sans-serif" font-size="16.5">Ukraine → Finland · agriculture &amp; business → software engineering</text>
  </g>
</svg>